<?xml version="1.0" standalone="no"?>
<!DOCTYPE svg PUBLIC "-//W3C//DTD SVG 20010904//EN"
 "http://www.w3.org/TR/2001/REC-SVG-20010904/DTD/svg10.dtd">
<svg version="1.0" xmlns="http://www.w3.org/2000/svg"
 width="45.000000pt" height="50.000000pt" viewBox="0 0 300.000000 300.000000" 
 preserveAspectRatio="xMidYMid meet" fill="#6BC5F8">
<g transform="translate(0.000000,300.000000) scale(0.100000,-0.100000)"
fill="#6BC5F8"
stroke="#6BC5F8">
<path d="M1360 2739 c-89 -13 -127 -25 -177 -57 -27 -16 -71 -37 -100 -46 -36
-12 -64 -31 -96 -65 -55 -59 -70 -104 -65 -189 3 -53 0 -74 -14 -98 -36 -61
-33 -257 7 -414 8 -30 16 -100 19 -155 2 -55 11 -125 19 -155 9 -30 15 -56 14
-56 -1 -1 -12 -5 -24 -8 -21 -7 -23 -4 -23 28 0 32 -3 36 -25 36 -20 0 -25 6
-31 35 -3 19 -10 35 -15 35 -5 0 -5 7 -2 17 4 10 2 14 -4 10 -13 -8 -23 25
-23 81 0 52 17 55 62 12 38 -37 40 -37 27 -3 -13 35 -38 63 -56 63 -21 0 -15
26 10 43 15 11 17 16 7 16 -40 1 -70 -49 -70 -115 0 -89 66 -263 106 -278 9
-3 24 -1 34 4 30 16 34 13 72 -53 35 -61 112 -148 173 -195 83 -64 261 -118
355 -109 88 10 184 44 256 93 74 49 91 47 80 -11 -6 -28 -16 -41 -44 -58 -45
-27 -52 -27 -75 -9 -22 20 -32 10 -17 -18 8 -16 9 -30 1 -52 -15 -41 -14 -58
3 -58 8 0 12 8 9 23 -6 36 71 107 117 107 23 0 24 -7 9 -47 -8 -23 -8 -26 3
-15 8 8 12 34 12 67 -1 36 3 55 11 59 19 7 39 -48 30 -81 -9 -40 -53 -125 -70
-137 -12 -9 -7 -19 30 -55 37 -37 46 -41 51 -27 4 10 27 39 53 65 l46 47 60
-26 c73 -30 100 -53 127 -104 30 -58 46 -109 74 -231 13 -60 54 -219 90 -353
36 -134 64 -246 61 -249 -3 -3 -17 17 -32 44 -24 44 -26 38 -10 -22 5 -16 -1
-22 -30 -31 -19 -6 -35 -10 -35 -9 0 1 7 22 15 45 8 23 15 58 15 77 0 36 -55
155 -97 212 -27 35 -112 81 -151 81 -19 0 -22 -4 -17 -28 4 -15 8 -36 10 -47
4 -19 49 -69 109 -123 34 -30 33 -42 -6 -79 -41 -40 -96 -60 -174 -67 -71 -6
-79 0 -113 77 -27 62 -88 147 -107 147 -11 0 -14 -15 -14 -62 0 -55 6 -75 47
-155 l46 -93 293 0 294 0 -9 23 c-5 13 -12 39 -15 58 -3 19 -14 68 -25 109
-54 207 -101 393 -116 465 -31 148 -90 273 -148 312 -18 12 -56 29 -84 38 -32
11 -53 23 -53 32 0 21 -57 100 -85 119 -12 8 -29 28 -35 45 -7 16 -22 36 -34
44 -20 15 -20 16 21 57 23 24 58 74 78 111 29 53 41 67 54 61 55 -23 87 13
126 141 28 92 31 141 11 190 -16 37 -52 63 -68 47 -6 -6 0 -12 16 -16 31 -8
34 -32 6 -41 -20 -6 -50 -52 -50 -76 0 -6 13 3 29 20 41 44 61 41 61 -9 0 -21
-7 -54 -15 -72 -8 -18 -19 -52 -25 -75 -8 -34 -14 -40 -30 -36 -17 5 -20 0
-20 -31 0 -36 -11 -44 -38 -28 -10 7 -9 22 4 78 9 39 16 107 15 158 0 49 6
114 13 145 39 152 38 337 -2 405 -11 18 -23 49 -27 67 -4 19 -14 42 -22 51 -9
10 -13 24 -10 32 22 56 -86 177 -213 240 -119 58 -289 79 -450 55z m129 -49
c17 -17 32 -37 32 -45 1 -8 2 -18 3 -22 9 -33 21 -171 17 -200 0 -8 -16 -13
-41 -13 -45 0 -55 13 -59 75 -1 22 -18 73 -38 113 -27 58 -41 77 -66 87 -43
18 -28 23 99 33 12 1 35 -12 53 -28z m147 15 c106 -19 192 -57 257 -114 41
-37 47 -48 49 -84 1 -37 2 -38 5 -9 9 67 40 23 38 -53 -2 -36 2 -44 19 -49 20
-6 20 -8 -9 -31 -29 -24 -72 -35 -60 -15 3 6 -1 7 -9 4 -10 -4 -16 -1 -16 9 0
29 -105 52 -231 50 l-115 -2 0 92 c1 83 -2 98 -30 155 -36 73 -41 71 102 47z
m-300 -45 c28 -20 71 -88 80 -125 6 -29 5 -28 -24 11 -41 57 -92 92 -92 64 0
-5 7 -10 15 -10 8 0 15 -4 15 -9 0 -5 20 -33 44 -63 49 -58 71 -104 56 -113
-5 -3 -45 -3 -89 0 -107 8 -212 -16 -250 -56 -16 -16 -35 -29 -44 -29 -10 0
-14 -6 -11 -14 3 -8 -4 -27 -15 -43 -20 -26 -70 -223 -72 -282 -1 -22 -3 -20
-14 14 -8 22 -14 82 -14 134 l-1 94 42 40 c40 39 41 39 8 22 -32 -16 -33 -16
-25 1 4 11 11 53 15 94 7 82 34 153 72 187 28 26 107 53 158 53 26 0 31 3 20
10 -12 8 -11 10 8 10 12 0 22 6 22 14 0 28 55 26 96 -4z m525 -307 c88 -40
116 -96 160 -320 31 -152 32 -162 21 -263 -14 -132 -34 -191 -78 -230 -29 -25
-43 -30 -87 -30 -45 0 -54 3 -62 22 -13 29 -64 38 -147 25 -35 -5 -112 -9
-173 -7 -60 1 -148 2 -195 3 -78 2 -86 0 -95 -20 -7 -16 -19 -22 -52 -25 -53
-4 -80 5 -115 39 -74 71 -106 319 -60 464 6 19 16 66 22 104 13 85 60 187 100
215 65 46 87 49 410 46 285 -2 308 -4 351 -23z m170 -29 c6 -19 4 -21 -14 -17
-20 5 -20 4 3 -13 14 -10 30 -25 37 -34 15 -20 25 -155 15 -200 -8 -32 -9 -33
-19 -15 -6 11 -18 55 -27 96 -19 92 -24 106 -49 143 -16 23 -17 30 -6 37 8 5
10 9 4 9 -5 0 -3 5 5 10 22 14 42 8 51 -16z m-317 -796 c-12 -19 -125 -41
-209 -41 -87 0 -211 25 -201 41 2 4 96 7 209 7 113 0 203 -3 201 -7z m70 -74
c-55 -105 -136 -152 -185 -109 -24 22 -154 22 -178 1 -47 -43 -137 4 -183 95
l-28 54 26 3 c14 2 42 -4 61 -13 19 -10 50 -17 69 -18 18 -1 31 -4 29 -7 -2
-4 22 -5 53 -4 51 2 53 2 17 -5 -34 -7 -29 -8 35 -8 54 -1 66 2 45 7 -27 7
-25 8 20 10 28 2 60 2 72 1 12 -1 39 6 60 15 34 15 104 33 111 29 1 -1 -10
-24 -24 -51z m-639 16 c40 0 47 -3 56 -27 26 -63 36 -78 79 -109 51 -38 95
-43 155 -18 42 17 113 15 181 -6 22 -7 53 -10 68 -6 41 10 109 84 124 134 13
43 14 43 50 38 20 -4 52 -2 71 4 19 5 36 8 38 6 9 -9 -28 -75 -75 -135 -28
-36 -49 -68 -47 -71 6 -10 -42 -49 -78 -64 -125 -52 -203 -69 -287 -63 -132
10 -300 79 -316 129 -3 11 -21 37 -39 57 -39 43 -95 130 -95 147 0 10 8 10 35
-2 19 -7 55 -14 80 -14z m857 -383 c25 -49 18 -76 -27 -116 -39 -34 -59 -38
-81 -16 -13 13 -11 21 15 72 17 32 33 73 37 91 5 27 9 30 21 20 8 -6 23 -29
35 -51z m241 -739 c27 -32 36 -68 17 -68 -17 0 -87 69 -93 91 -5 18 -2 20 21
15 15 -4 39 -21 55 -38z m67 -70 c0 -9 11 -37 24 -62 27 -50 26 -104 -2 -137
-14 -16 -30 -19 -104 -19 -84 0 -113 11 -65 25 39 12 87 49 87 68 0 11 4 15
12 11 6 -4 8 -3 5 3 -3 5 -2 25 2 44 5 19 12 52 16 73 5 29 9 36 16 25 5 -8 9
-22 9 -31z m-436 -85 c5 -4 5 2 2 15 -4 12 -3 22 3 22 12 0 26 -36 30 -77 0
-7 18 -24 38 -38 31 -20 50 -25 102 -25 85 0 73 -9 -22 -16 l-76 -5 -42 38
c-47 43 -69 87 -68 135 l1 33 12 -37 c6 -20 15 -40 20 -45z" />
<path d="M1183 2082 c-28 -10 -67 -32 -86 -49 -20 -17 -49 -34 -66 -38 -41 -9
-58 -31 -43 -56 7 -10 12 -48 12 -84 0 -140 98 -230 229 -210 119 18 192 103
197 230 2 51 6 62 26 72 29 16 66 16 107 2 30 -11 31 -13 31 -70 0 -97 51
-180 132 -214 43 -17 134 -20 175 -4 35 13 80 55 101 94 16 32 26 195 11 195
-5 0 -8 9 -6 21 1 15 -7 23 -34 33 -20 7 -53 26 -75 43 -63 49 -170 68 -229
41 -37 -17 -33 -41 6 -33 16 4 58 3 92 -1 l62 -7 -82 -17 c-63 -12 -90 -23
-112 -44 -23 -22 -33 -26 -47 -18 -34 18 -85 21 -130 7 -42 -13 -46 -12 -69 9
-31 29 -88 46 -156 47 -47 0 -51 2 -29 11 14 6 58 11 98 11 76 0 94 14 47 35
-37 17 -102 14 -162 -6z m156 -101 c22 -12 45 -30 51 -40 26 -49 -2 -160 -54
-215 -55 -59 -175 -73 -235 -29 -85 63 -105 208 -38 271 48 45 198 52 276 13z
m565 16 c50 -15 75 -50 83 -115 15 -127 -76 -222 -198 -206 -61 8 -119 48
-143 98 -17 36 -17 38 4 71 28 45 36 44 32 -3 -3 -27 2 -45 16 -62 18 -22 23
-23 58 -15 45 12 70 48 61 88 -4 14 -16 29 -27 32 -26 8 -26 25 0 18 30 -8 43
-40 37 -90 -4 -36 -2 -42 9 -32 19 15 18 79 -2 107 -8 12 -11 22 -6 22 19 0
65 -44 77 -74 11 -25 15 -28 20 -14 14 35 -49 90 -116 103 -68 13 -125 -14
-174 -80 -13 -18 -14 -15 -15 38 0 49 4 61 25 81 14 13 39 28 57 33 44 15 154
14 202 0z m-156 -124 c-5 -26 -38 -29 -38 -4 0 15 6 21 21 21 14 0 19 -5 17
-17z" />
<path d="M1177 1915 c-52 -18 -87 -52 -87 -84 l0 -26 19 31 c20 32 71 78 79
70 2 -3 -3 -12 -12 -21 -20 -21 -21 -88 -1 -105 19 -16 111 -27 102 -13 -4 6
2 18 13 28 16 14 20 15 20 4 0 -8 -5 -20 -12 -27 -9 -9 -9 -12 0 -12 20 0 34
42 29 86 -5 49 4 49 34 0 11 -19 19 -25 19 -15 0 27 -60 78 -99 85 -20 3 -43
7 -51 9 -8 2 -32 -2 -53 -10z m114 -25 c10 -6 19 -18 19 -28 -1 -15 -2 -15
-13 -1 -7 8 -21 21 -32 27 -25 14 -1 16 26 2z m-58 -14 c8 -19 -15 -37 -32
-26 -17 10 -7 40 13 40 7 0 16 -6 19 -14z"/>
<path d="M1066 1881 c-16 -16 -26 -35 -24 -41 2 -7 16 6 31 29 32 49 31 51 -7
12z"/>
<path d="M1416 1674 c-34 -35 -35 -78 -1 -100 14 -9 29 -13 33 -9 4 4 -3 14
-15 22 -40 27 -24 85 28 106 11 4 10 6 -2 6 -9 1 -28 -11 -43 -25z"/>
<path d="M1583 1672 c32 -34 34 -55 6 -81 -25 -23 -10 -36 19 -15 31 21 28 65
-4 98 -36 35 -55 34 -21 -2z"  />
<path d="M1091 1244 c-12 -15 -21 -30 -21 -35 0 -4 -23 -31 -50 -58 -30 -30
-53 -63 -57 -82 -3 -17 -13 -33 -22 -36 -75 -23 -125 -50 -152 -80 -43 -50
-85 -143 -104 -231 -9 -42 -21 -90 -26 -107 -5 -16 -29 -105 -54 -196 -24 -91
-47 -172 -49 -180 -3 -8 -16 -60 -30 -116 l-24 -103 702 0 c612 1 698 3 676
15 -31 18 -221 20 -252 4 -31 -16 -38 3 -38 103 l0 86 48 34 c54 39 94 56 138
60 l30 3 -34 34 c-23 22 -30 26 -23 12 13 -24 7 -41 -15 -41 -22 0 -74 -29
-112 -61 -18 -16 -41 -29 -52 -29 -27 0 -60 39 -60 71 0 30 44 89 66 89 11 0
14 30 14 169 l0 168 78 27 c42 14 83 26 90 26 7 0 23 -23 36 -50 20 -43 22
-57 14 -93 -5 -23 -16 -49 -24 -58 -8 -8 -14 -20 -14 -25 0 -5 7 0 15 10 14
18 15 14 15 -45 0 -64 22 -164 41 -184 12 -12 11 10 -2 60 -6 22 -12 105 -12
185 l-2 145 -32 49 c-18 27 -46 57 -63 67 -33 20 -38 44 -16 75 14 19 15 19
53 -1 61 -32 115 -94 166 -187 26 -48 47 -94 47 -101 0 -7 7 -22 15 -33 29
-39 7 28 -42 125 -48 94 -120 181 -175 210 -35 18 -76 7 -88 -23 -11 -31 -57
-66 -85 -66 -23 0 -55 28 -55 48 0 7 18 24 40 38 42 28 54 42 20 24 -11 -6
-24 -9 -29 -6 -4 3 -17 -7 -28 -22 -30 -42 -38 -56 -25 -48 6 3 13 -2 17 -13
3 -10 19 -25 36 -32 25 -10 28 -14 15 -21 -24 -14 -50 5 -93 69 -21 31 -45 59
-52 61 -8 3 -11 0 -7 -7 10 -16 1 -14 -44 9 -22 11 -54 20 -72 19 -29 -1 -26
-2 18 -13 65 -16 124 -52 124 -76 0 -24 -26 -50 -50 -50 -17 0 -81 45 -88 63
-9 19 -35 37 -54 37 -32 0 -99 -48 -139 -99 -64 -83 -153 -261 -130 -261 5 0
14 15 20 33 45 122 122 236 194 288 47 34 72 37 87 9 16 -30 4 -54 -35 -76
-19 -10 -35 -24 -35 -30 0 -6 -9 -22 -19 -36 -25 -32 -32 -69 -35 -213 -2 -66
-7 -140 -11 -164 -5 -29 -5 -42 2 -38 18 11 37 100 38 170 0 56 2 65 13 50 16
-23 15 -9 -2 25 -27 52 -26 88 2 144 15 29 31 52 35 52 4 -1 42 -11 83 -24
l75 -22 -1 -165 -2 -165 29 -17 c44 -28 54 -46 51 -92 -2 -35 -8 -46 -29 -58
-24 -13 -29 -13 -50 2 -13 10 -39 29 -58 43 -19 13 -46 27 -60 30 -51 11 -55
14 -43 26 7 7 12 17 12 23 -1 5 -8 1 -18 -11 -9 -11 -26 -26 -37 -32 -17 -10
-12 -11 31 -12 42 0 61 -7 107 -37 30 -20 57 -43 59 -52 2 -9 2 -56 0 -104 -3
-79 -5 -88 -20 -81 -28 14 -229 17 -252 4 -12 -6 -24 -10 -26 -7 -3 2 13 39
36 81 32 62 40 87 40 129 0 63 -15 92 -31 64 -6 -10 -23 -33 -38 -50 -15 -18
-40 -57 -55 -87 -44 -86 -43 -86 -132 -72 -83 13 -138 39 -167 78 l-18 25 65
70 c47 50 69 84 79 117 7 26 9 49 5 50 -5 2 -31 -1 -58 -8 -65 -16 -111 -58
-165 -155 -37 -66 -45 -88 -45 -132 0 -29 5 -64 12 -78 15 -33 8 -38 -30 -19
-32 15 -32 15 -17 51 26 62 15 60 -17 -2 -17 -33 -33 -55 -35 -48 -2 6 8 53
22 105 44 161 94 348 135 505 41 159 76 242 118 282 27 24 122 71 145 71 7 0
23 -16 37 -34 14 -19 38 -42 53 -51 23 -14 28 -23 24 -42 -4 -21 2 -18 40 24
35 38 42 51 34 63 -35 49 -72 120 -77 149 -8 40 5 85 26 89 12 2 15 -10 15
-60 0 -54 5 -71 34 -118 18 -30 34 -56 36 -58 1 -1 17 4 35 11 37 16 25 33
-16 23 -20 -5 -28 0 -44 26 -11 18 -26 50 -32 72 -10 34 -10 40 6 51 14 11 15
17 7 34 -6 11 -11 33 -11 50 0 38 -12 39 -39 5z m4 -214 c9 -19 24 -43 32 -52
13 -15 13 -19 -6 -39 -23 -25 -25 -24 -93 40 -47 44 -49 73 -6 132 l32 44 11
-45 c7 -25 20 -61 30 -80z m401 -199 c-20 -22 -53 -33 -61 -21 -3 5 3 11 14
15 11 3 25 20 31 38 12 31 12 32 22 9 9 -17 7 -26 -6 -41z m212 20 c10 -6 6
-15 -20 -35 -35 -28 -27 -36 10 -10 12 8 28 14 35 11 6 -2 -3 -12 -21 -21 -19
-10 -41 -15 -50 -11 -8 3 -46 -10 -84 -30 -51 -27 -68 -32 -68 -21 0 15 29 39
115 92 55 35 64 38 83 25z m-313 -33 c58 -30 115 -80 98 -85 -11 -4 -114 44
-161 75 -18 11 -20 17 -11 29 7 7 15 12 18 11 3 -2 29 -15 56 -30z m142 1 c7
-7 3 -18 -14 -35 -23 -23 -26 -24 -38 -8 -11 15 -9 21 9 36 25 21 29 21 43 7z
m-36 -131 l2 -23 4 23 c5 24 7 25 41 16 21 -6 22 -10 22 -140 0 -78 -4 -135
-10 -139 -5 -3 -10 -2 -10 3 0 5 -9 21 -21 36 -17 21 -24 24 -40 16 -24 -13
-25 -56 -1 -69 9 -6 12 -11 7 -11 -6 0 -21 7 -33 16 -21 14 -22 22 -22 148 0
73 3 136 7 139 3 4 17 7 30 7 17 0 23 -6 24 -22z m25 -229 c10 -17 -23 -46
-37 -32 -7 7 -9 19 -6 27 7 18 33 21 43 5z m-676 -88 c0 -5 -22 -34 -49 -63
-38 -41 -51 -49 -56 -37 -3 8 -1 28 4 42 15 39 101 88 101 58z m-84 -223 c15
-18 15 -20 2 -9 -11 8 -18 9 -18 3 0 -6 20 -23 45 -39 24 -15 44 -31 45 -35 0
-5 -38 -8 -84 -8 l-84 0 -12 36 c-14 42 -6 93 19 125 10 13 22 42 26 64 l8 40
17 -77 c9 -43 25 -88 36 -100z m395 32 c-14 -49 -75 -108 -118 -116 -19 -4
-58 -2 -86 3 l-52 10 58 2 c65 1 100 16 137 57 14 15 19 24 13 20 -17 -10 -16
14 2 37 13 18 14 17 17 -5 4 -18 8 -11 19 27 11 39 14 45 17 25 2 -13 -1 -40
-7 -60z m340 33 c1 -17 2 -17 6 0 5 20 16 21 44 7 16 -9 19 -22 19 -85 0 -41
-3 -75 -7 -75 -5 0 -18 -3 -30 -6 -18 -5 -23 -2 -23 12 0 17 0 17 -13 0 -21
-29 -55 -13 -59 27 -6 68 3 114 25 125 31 15 37 14 38 -5z" fill="#6BC5F8" />
<path d="M1480 595 c-19 -22 -8 -50 21 -53 31 -4 44 19 29 49 -13 23 -33 25
-50 4z m44 -11 c7 -19 -1 -34 -19 -34 -18 0 -28 17 -21 35 7 20 32 19 40 -1z"/>
<path d="M1487 168 c-23 -12 -22 -45 2 -57 26 -14 56 9 47 36 -8 26 -27 34
-49 21z m41 -25 c5 -17 -26 -29 -40 -15 -6 6 -7 15 -3 22 9 14 37 9 43 -7z"/>
<path d="M1185 1136 c56 -47 65 -60 71 -98 4 -23 12 -38 20 -38 17 0 17 0 -2
45 -10 25 -13 50 -9 74 6 31 5 33 -9 22 -13 -11 -23 -10 -58 3 l-43 17 30 -25z"/>
<path d="M1301 1057 c8 -7 46 -26 84 -41 83 -34 198 -39 237 -12 12 9 33 16
45 16 12 0 27 9 33 19 9 18 8 19 -28 10 -20 -6 -51 -17 -69 -25 -48 -22 -134
-18 -201 9 -31 13 -70 27 -86 31 -24 6 -26 5 -15 -7z" fill="#6BC5F8"/>
<path d="M1850 1035 c-7 -9 -19 -14 -27 -11 -7 3 -23 1 -35 -3 -23 -9 -23 -9
5 -20 39 -15 40 -15 60 19 19 32 18 40 -3 15z" fill="#6BC5F8" />
<path d="M2131 848 c-28 -46 -61 -96 -75 -113 -23 -27 -25 -28 -26 -9 0 11 -7
29 -15 40 -12 16 -11 10 2 -32 l16 -52 22 27 c26 31 119 178 128 204 13 35 -3
15 -52 -65z" fill="#6BC5F8"/>
<path d="M836 880 c18 -67 144 -266 144 -229 0 8 -12 30 -27 48 -16 18 -50 71
-76 119 -27 48 -45 76 -41 62z" fill="#6BC5F8"/>
<path d="M1926 814 c10 -17 34 -48 52 -70 30 -34 32 -35 18 -9 -9 17 -32 48
-53 70 -31 34 -34 35 -17 9z" fill="#6BC5F8"/>
<path d="M995 740 c-4 -6 -4 -25 0 -43 5 -24 4 -28 -4 -17 -12 17 -15 1 -3
-17 5 -9 13 -1 24 23 14 31 14 33 0 22 -13 -11 -15 -9 -10 15 6 28 3 34 -7 17z" fill="#6BC5F8"/>
<path d="M1679 484 c-30 -31 -45 -52 -34 -46 26 13 100 90 94 97 -3 2 -30 -21
-60 -51z" fill="#6BC5F8"/>
<path d="M1309 482 c30 -38 59 -62 76 -62 6 0 -60 66 -90 90 -11 8 -5 -4 14
-28z" fill="#6BC5F8" />
</g>
</svg>
