<?xml version="1.0" standalone="no"?>
<!DOCTYPE svg PUBLIC "-//W3C//DTD SVG 20010904//EN"
 "http://www.w3.org/TR/2001/REC-SVG-20010904/DTD/svg10.dtd">
<svg version="1.0" xmlns="http://www.w3.org/2000/svg"
 width="130.000000pt" height="28.000000pt" viewBox="0 0 300.000000 40.000000"
 preserveAspectRatio="xMidYMid meet">

<g transform="translate(0.000000,68.000000) scale(0.050000,-0.050000)"
fill="#a90aff" stroke="none">
<path d="M433 1207 c-7 -8 -13 -30 -13 -50 0 -24 -16 -38 -45 -40 -30 -1 -22
-7 25 -17 l70 -15 -66 -2 c-37 -2 -86 -12 -110 -24 -43 -20 -43 -20 -5 10 44
35 27 41 -31 10 -21 -12 -33 -31 -25 -43 7 -13 4 -17 -9 -9 -77 48 -116 -235
-42 -309 42 -42 47 -42 233 -15 14 2 25 21 25 43 0 30 -10 36 -45 27 -40 -10
-39 -5 15 45 62 58 100 132 43 85 -22 -19 -31 -18 -40 6 -7 19 0 31 18 31 18
0 29 19 29 50 0 52 48 70 67 25 8 -20 10 -20 11 0 1 14 11 25 22 25 12 0 15
-21 8 -50 -7 -27 -6 -50 2 -50 8 0 32 23 54 50 49 62 112 65 134 5 30 -80 -46
-147 -155 -139 -48 4 -57 -6 -81 -86 -23 -79 -40 -95 -95 -88 -7 0 -31 -33
-55 -74 -46 -83 -92 -111 -92 -57 0 33 -3 33 -41 -2 -103 -93 14 -149 207 -99
39 11 77 4 122 -20 264 -143 479 233 221 387 -39 23 -39 23 0 46 258 154 141
345 -167 274 -105 -25 -147 -14 -106 27 13 13 24 31 24 40 0 19 -88 21 -107 3z
m-23 -227 c0 -17 -16 -29 -36 -27 -25 2 -33 -7 -25 -27 6 -16 11 -38 11 -49 0
-11 9 -14 20 -7 11 7 20 -1 20 -17 0 -33 -43 -54 -107 -52 -40 2 -41 3 -4 17
37 15 37 16 -5 27 -91 24 -23 182 73 171 31 -3 53 -18 53 -36z m269 -229 c97
-62 108 -80 81 -131 -31 -57 -149 -58 -134 0 13 49 -17 53 -44 5 -16 -27 -21
-15 -21 57 -1 133 7 138 118 69z"/>
<path d="M3735 1208 c14 -6 25 -33 25 -60 0 -47 -4 -48 -138 -43 -114 4 -149
-2 -195 -36 -228 -167 -111 -499 131 -372 l79 41 -18 -62 c-10 -33 -32 -82
-49 -108 -35 -54 -102 -67 -82 -17 8 23 2 30 -23 25 -55 -10 -80 -109 -39
-151 33 -32 40 -32 132 0 54 19 112 35 130 35 38 0 43 -52 7 -68 -14 -6 -2 -9
25 -6 54 4 58 35 29 229 -19 124 5 173 46 95 64 -121 60 -345 -7 -371 -54 -20
-55 -23 -20 -43 27 -15 49 -15 72 -1 27 17 40 10 68 -37 74 -125 275 -162 351
-64 53 67 46 141 -16 182 -39 26 -46 27 -42 3 18 -131 -124 -94 -196 51 -50
101 -48 218 4 289 53 71 65 121 31 121 -11 0 -20 -8 -20 -18 0 -33 -67 -44
-95 -15 -25 24 -17 35 57 76 200 110 239 337 58 337 -69 0 -121 -47 -118 -106
0 -24 6 -33 11 -19 6 14 23 25 39 25 64 0 19 -79 -122 -215 -82 -79 -150 -153
-150 -165 0 -11 -9 -20 -20 -20 -11 0 -18 22 -16 49 3 26 11 44 20 39 18 -11
96 64 96 93 0 11 19 57 41 101 64 125 48 207 -41 212 -38 3 -59 0 -45 -6z
m-141 -184 c13 -8 33 -40 45 -70 20 -54 20 -55 -21 -27 -53 37 -110 22 -76
-19 37 -45 5 -92 -57 -84 -81 9 -89 114 -13 174 57 45 84 51 122 26z"/>
<path d="M1653 1119 c-64 -50 -67 -71 -12 -85 41 -11 41 -19 28 -270 l-14
-260 51 -33 c61 -40 101 -25 83 31 -27 87 84 273 133 224 15 -15 14 -47 -2
-106 -45 -165 46 -240 178 -147 44 31 48 31 66 0 23 -41 119 -43 195 -3 50 26
58 26 68 0 16 -40 132 -39 189 1 40 29 45 29 56 0 8 -20 37 -31 81 -31 83 0
253 141 216 179 -16 16 -32 11 -59 -19 -37 -41 -80 -52 -97 -25 -5 8 7 105 28
215 57 307 45 370 -73 370 -71 0 -171 -101 -119 -120 70 -24 59 -417 -13 -463
-74 -47 -99 55 -54 222 12 42 -93 87 -169 73 -107 -21 -190 -85 -238 -187 -76
-160 -134 -157 -99 6 23 108 16 141 -39 171 -44 23 -226 -51 -206 -84 6 -10 2
-18 -10 -18 -12 0 -17 20 -12 45 56 243 56 305 3 340 -40 26 -106 16 -159 -26z
m779 -387 c14 -36 -45 -150 -85 -166 -73 -28 -73 68 -1 149 47 52 71 57 86 17z"/>
<path d="M5045 1107 l-53 -53 44 -16 c39 -15 44 -31 44 -149 0 -76 -8 -127
-19 -120 -10 6 -24 2 -31 -9 -20 -32 -50 -3 -50 49 0 84 -109 81 -159 -4 -17
-31 -20 -31 -20 -2 -2 73 -56 84 -126 26 -71 -60 -85 -102 -30 -93 53 9 44
-69 -14 -127 -91 -91 -130 -45 -98 114 22 108 13 125 -79 148 -190 48 -422
-226 -333 -392 25 -47 124 -52 203 -11 46 24 55 24 64 0 16 -42 139 -34 198
13 l52 41 41 -41 c65 -65 129 -55 114 18 -11 58 16 172 49 210 10 11 27 -8 40
-45 29 -84 87 -84 138 1 l40 65 0 -115 c0 -99 6 -118 49 -146 61 -40 89 -25
76 41 -12 64 -2 63 78 -10 74 -68 179 -80 251 -30 37 26 43 26 53 0 34 -88
293 29 293 132 0 49 -17 48 -74 -6 -65 -60 -89 -29 -64 83 39 175 -20 230
-140 129 -72 -60 -79 -88 -22 -88 45 0 49 -15 20 -89 -42 -110 -200 -103 -262
13 -29 53 53 136 133 136 52 0 64 37 25 76 -62 62 -198 14 -235 -83 -11 -29
-29 -53 -40 -53 -13 0 -13 17 -1 50 113 296 16 507 -155 337z m-645 -394 c0
-56 -71 -153 -111 -153 -43 0 -35 86 12 147 52 66 99 69 99 6z"/>
<path d="M1040 1020 c-31 -59 -11 -100 48 -100 59 0 116 52 108 97 -10 53
-128 55 -156 3z"/>
<path d="M5622 1032 c-39 -47 -18 -101 41 -108 59 -7 122 45 113 93 -8 44
-121 55 -154 15z"/>
<path d="M1360 874 c-77 -39 -77 -133 -1 -220 70 -80 79 -134 22 -134 -52 0
-69 33 -29 56 19 10 27 29 20 41 -23 36 -103 27 -142 -17 -35 -39 -111 -56
-110 -25 1 8 10 55 22 104 41 179 -24 233 -147 121 -65 -59 -65 -60 -19 -72
40 -11 45 -22 32 -66 -55 -187 24 -281 160 -191 46 30 54 30 96 1 180 -127
410 51 256 198 -58 56 -81 130 -40 130 11 0 18 -11 15 -24 -7 -33 61 -44 96
-15 100 83 -98 180 -231 113z"/>
</g>
</svg>
