<?xml version="1.0" standalone="no"?>
<!DOCTYPE svg PUBLIC "-//W3C//DTD SVG 20010904//EN"
 "http://www.w3.org/TR/2001/REC-SVG-20010904/DTD/svg10.dtd">
<svg version="1.0" xmlns="http://www.w3.org/2000/svg"
 width="33.000000pt" height="50.000000pt" viewBox="0 0 300.000000 97.000000"
 preserveAspectRatio="xMidYMid meet">
<metadata>
Created by potrace 1.10, written by Peter Selinger 2001-2011
</metadata>
<g transform="translate(0.000000,97.000000) scale(0.100000,-0.100000)"
fill="#6BC5F8" stroke="none">
<path d="M1215 823 c-26 -16 -64 -18 -317 -18 -277 0 -287 -1 -306 -21 -25
-26 -35 -58 -27 -83 4 -14 22 -23 61 -32 30 -7 57 -16 60 -21 10 -16 139 -9
175 10 30 15 66 17 301 17 200 0 270 3 279 13 18 17 135 15 189 -4 36 -13 68
-15 160 -10 63 4 156 7 205 7 97 1 223 -20 202 -33 -6 -4 16 -8 51 -8 45 0 61
3 56 12 -4 6 -3 8 3 5 11 -7 112 21 131 35 29 24 -2 97 -44 105 -10 1 -131 3
-268 3 -206 0 -254 3 -282 16 -38 18 -87 16 -204 -11 -88 -20 -131 -21 -185
-7 -84 22 -174 42 -192 42 -10 0 -31 -8 -48 -17z m185 -40 c36 -2 70 -9 75
-15 7 -6 -17 -8 -70 -4 -133 9 -185 17 -185 30 0 9 14 10 58 3 31 -4 86 -11
122 -14z m430 8 c0 -10 -57 -18 -179 -27 -51 -4 -71 -2 -67 5 4 6 36 11 71 11
35 0 67 5 70 10 8 12 105 13 105 1z m-718 -28 c-95 -2 -248 -2 -340 0 -92 1
-14 3 173 3 187 0 262 -2 167 -3z m1141 0 c-90 -2 -236 -2 -325 0 -90 1 -17 3
162 3 179 0 252 -2 163 -3z m177 -22 c0 -16 -103 -21 -432 -24 -174 -1 -320
-6 -324 -9 -3 -4 -19 -1 -35 7 -37 20 -185 20 -219 0 -30 -17 -200 -21 -217
-4 -10 10 -167 7 -380 -6 -72 -5 -98 -3 -122 9 -16 9 -50 16 -76 16 -25 0 -45
5 -45 10 0 7 315 10 925 10 547 0 925 -4 925 -9z m-1740 -36 c14 -8 52 -14 88
-15 34 0 62 -4 62 -10 0 -15 -121 -11 -150 5 -14 8 -44 14 -67 15 -24 0 -43 5
-43 10 0 15 81 11 110 -5z m1740 6 c0 -5 -24 -12 -52 -15 -155 -18 -198 -21
-195 -11 2 6 35 12 74 15 39 3 75 8 79 13 11 10 94 9 94 -2z"/>
<path d="M367 582 c-13 -14 -17 -39 -17 -106 0 -119 5 -126 86 -126 56 0 68 3
91 26 22 22 25 31 19 71 -3 25 -6 59 -6 75 0 17 -10 39 -25 53 -20 20 -34 25
-78 25 -40 0 -58 -5 -70 -18z m124 -22 c21 -12 27 -64 8 -76 -8 -5 -6 -10 5
-16 19 -11 21 -59 4 -76 -7 -7 -38 -12 -70 -12 l-58 0 0 95 0 95 46 0 c25 0
54 -5 65 -10z"/>
<path d="M400 515 c0 -34 1 -35 40 -35 29 0 42 5 50 21 16 30 -4 49 -51 49
-38 0 -39 -1 -39 -35z"/>
<path d="M400 429 c0 -39 0 -39 38 -39 42 0 62 14 62 42 0 20 -7 24 -62 32
l-38 5 0 -40z"/>
<path d="M576 584 c-21 -21 -20 -37 4 -52 28 -17 28 -97 0 -127 -12 -12 -16
-25 -11 -33 11 -19 69 -30 109 -21 51 10 58 23 33 55 -29 36 -29 109 -1 126
24 15 25 31 4 52 -21 22 -117 22 -138 0z m134 -24 c0 -5 -13 -10 -30 -10 l-30
0 0 -80 0 -80 30 0 c17 0 30 -3 30 -7 0 -5 -29 -8 -65 -8 -36 0 -65 3 -65 8 0
4 14 7 30 7 l30 0 0 80 0 80 -30 0 c-16 0 -30 5 -30 10 0 6 28 10 65 10 37 0
65 -4 65 -10z"/>
<path d="M775 576 c-21 -21 -24 -32 -23 -102 1 -102 17 -124 93 -124 30 0 60
6 73 16 18 12 26 13 37 4 21 -17 44 -5 56 30 12 34 46 41 55 13 13 -42 22 -48
69 -50 37 -2 52 2 65 17 22 26 52 25 76 -1 14 -16 26 -19 50 -14 18 3 35 1 39
-5 8 -13 131 -13 156 0 41 23 10 60 -50 60 -39 0 -51 22 -51 93 0 102 -61 106
-70 4 -3 -30 -8 -58 -11 -61 -3 -4 -17 19 -31 51 -14 32 -35 67 -47 77 -21 19
-21 19 -42 0 -12 -10 -31 -37 -42 -59 l-21 -40 -6 37 c-13 72 -52 90 -75 34
-8 -19 -19 -38 -25 -41 -15 -9 -40 13 -40 35 0 30 -27 45 -54 30 -20 -10 -28
-10 -47 4 -36 25 -105 21 -134 -8z m125 -26 c20 -20 27 -50 12 -50 -5 0 -14
11 -20 25 -15 32 -62 37 -91 10 -19 -19 0 -41 42 -50 73 -15 97 -55 57 -95
-26 -26 -70 -26 -104 1 -25 20 -36 59 -16 59 6 0 10 -9 10 -20 0 -37 75 -55
101 -24 19 23 1 43 -56 62 -43 15 -50 21 -53 47 -3 19 2 33 14 42 27 20 81 16
104 -7z m81 -28 l-3 -42 61 0 61 0 0 45 c0 25 5 45 10 45 6 0 10 -38 10 -94 0
-53 -4 -98 -10 -101 -6 -4 -10 12 -10 39 l0 46 -61 0 -61 0 3 -40 c2 -22 0
-41 -5 -42 -4 -2 -8 41 -10 95 -1 61 2 96 9 94 5 -2 8 -22 6 -45z m306 -47
c22 -52 37 -98 32 -101 -5 -3 -16 11 -24 30 -14 33 -19 36 -56 36 -36 0 -41
-3 -55 -35 -8 -20 -19 -33 -23 -30 -5 3 8 46 30 97 21 50 39 93 39 95 0 2 4 3
8 3 5 0 27 -43 49 -95z m103 5 l0 -90 72 0 c39 0 68 -3 64 -7 -4 -4 -38 -8
-77 -8 l-69 0 0 75 c0 41 -3 85 -6 98 -4 13 -2 22 5 22 7 0 11 -30 11 -90z"/>
<path d="M1217 490 l-15 -40 34 0 c19 0 34 3 34 7 0 14 -24 73 -30 73 -4 0
-14 -18 -23 -40z"/>
<path d="M2003 578 c-11 -13 -31 -49 -43 -80 -25 -61 -42 -72 -60 -38 -8 16
-5 28 16 60 22 33 24 43 14 55 -17 21 -54 19 -75 -5 -23 -25 -33 -25 -62 2
-22 21 -23 21 -43 3 -17 -15 -20 -31 -20 -97 0 -117 25 -148 75 -90 l23 27 30
-30 c25 -25 36 -29 73 -26 26 1 52 11 65 22 26 24 56 24 71 0 18 -28 110 -26
136 2 l17 20 29 -20 c42 -32 119 -29 148 6 l21 26 29 -27 c29 -28 67 -37 78
-18 4 6 14 4 28 -4 36 -23 112 -24 142 -2 18 13 18 14 -3 44 -28 38 -29 93 -2
117 24 22 25 38 4 59 -19 20 -113 22 -139 2 -14 -10 -25 -10 -46 -3 -23 9 -32
7 -62 -16 l-34 -26 -20 27 c-18 25 -22 26 -45 14 -22 -12 -30 -12 -56 2 -17 9
-53 16 -80 16 -59 0 -82 -20 -82 -73 0 -51 -15 -54 -34 -7 -16 39 -48 80 -64
80 -5 0 -18 -10 -29 -22z m-223 -69 l0 -62 56 62 c31 33 63 61 72 61 11 0 3
-13 -25 -42 l-41 -41 39 -53 c21 -29 39 -56 39 -59 0 -17 -21 1 -50 43 -18 26
-35 49 -37 51 -9 12 -53 -46 -53 -71 0 -15 -4 -28 -10 -28 -6 0 -10 40 -10
100 0 60 4 100 10 100 6 0 10 -27 10 -61z m301 -38 c21 -52 37 -96 35 -99 -10
-9 -25 10 -31 38 -6 28 -10 30 -51 30 -41 0 -45 -2 -59 -37 -8 -20 -18 -33
-22 -30 -9 9 69 198 80 194 5 -1 26 -45 48 -96z m206 77 c28 -27 30 -61 3 -88
l-21 -21 21 -28 c21 -31 25 -41 13 -41 -5 0 -19 16 -32 35 -19 28 -30 35 -57
35 -32 0 -34 -2 -34 -35 0 -19 -4 -35 -10 -35 -6 0 -10 40 -10 100 l0 100 52
0 c39 0 57 -5 75 -22z m83 -40 l0 -62 65 64 c35 35 68 60 72 56 5 -4 -9 -21
-29 -38 -21 -16 -38 -34 -38 -40 0 -5 16 -30 35 -55 19 -25 35 -50 35 -54 0
-18 -16 -8 -33 19 -9 15 -25 38 -36 52 l-20 25 -25 -24 c-16 -15 -26 -35 -26
-53 0 -17 -4 -27 -10 -23 -6 3 -10 48 -10 101 0 56 4 94 10 94 6 0 10 -27 10
-62z m320 52 c0 -5 -12 -10 -27 -10 l-28 0 0 -80 0 -80 28 0 c15 0 27 -3 27
-7 0 -5 -29 -8 -65 -8 -36 0 -65 3 -65 8 0 4 14 7 30 7 l30 0 0 80 0 80 -30 0
c-16 0 -30 5 -30 10 0 6 28 10 65 10 37 0 65 -4 65 -10z m-104 -69 c9 -30 -5
-71 -29 -85 -15 -9 -21 -6 -37 14 -32 40 -34 65 -9 99 21 29 23 29 45 13 13
-9 27 -28 30 -41z"/>
<path d="M2016 505 c-22 -52 -21 -55 19 -55 l35 0 -17 43 c-9 23 -18 44 -19
46 -2 2 -10 -14 -18 -34z"/>
<path d="M2180 505 l0 -45 43 0 c47 0 67 13 67 45 0 32 -20 45 -67 45 l-43 0
0 -45z"/>
<path d="M2210 300 c-8 -5 -40 -17 -70 -26 -55 -16 -124 -16 -388 2 -68 5 -94
2 -144 -15 -73 -25 -132 -27 -180 -6 -45 18 -92 20 -300 10 -157 -8 -171 -7
-246 15 -76 22 -85 23 -154 10 -40 -8 -76 -15 -80 -16 -5 -1 -12 -2 -17 -3
-17 -2 -41 -32 -41 -51 0 -10 12 -32 26 -49 l26 -31 266 0 c196 0 277 -4 305
-14 27 -9 53 -10 90 -4 29 5 74 11 102 14 27 3 54 9 59 14 13 13 79 13 92 1 5
-6 34 -12 65 -14 31 -2 62 -7 69 -12 7 -4 28 -8 47 -7 20 1 33 -3 33 -11 0 -8
2 -9 8 -1 14 21 78 27 370 33 293 6 294 6 313 30 23 28 25 74 4 91 -34 28
-228 59 -255 40z m-1355 -40 c-3 -5 -32 -10 -64 -10 -35 0 -65 -6 -77 -15 -10
-8 -35 -15 -54 -16 l-35 -2 32 -4 c18 -2 42 2 55 9 28 15 662 20 692 5 23 -11
205 -10 221 2 17 14 707 7 732 -7 25 -14 69 -16 77 -3 6 9 -43 18 -154 27 -36
3 -69 10 -75 16 -10 9 68 7 196 -8 52 -5 57 -8 55 -30 l-1 -24 -912 0 c-502 0
-916 0 -920 0 -4 0 -7 10 -7 23 0 19 4 22 31 19 17 -2 44 4 60 12 32 17 158
22 148 6z m415 -80 c0 -6 -112 -10 -315 -10 -203 0 -315 4 -315 10 0 6 112 10
315 10 203 0 315 -4 315 -10z m185 0 c-3 -5 -30 -10 -58 -10 -29 -1 -63 -7
-77 -15 -29 -16 -100 -20 -100 -5 0 6 15 10 33 10 17 1 43 7 57 15 29 16 155
21 145 5z m265 -5 c14 -8 42 -14 63 -15 20 0 37 -4 37 -10 0 -15 -81 -11 -110
5 -14 8 -51 14 -82 15 -31 0 -60 5 -63 10 -10 16 126 12 155 -5z m710 5 c0 -6
-116 -10 -329 -10 -209 0 -332 4 -336 10 -4 7 108 10 329 10 217 0 336 -4 336
-10z"/>
</g>
</svg>
