<?xml version="1.0" standalone="no"?>
<!DOCTYPE svg PUBLIC "-//W3C//DTD SVG 20010904//EN"
 "http://www.w3.org/TR/2001/REC-SVG-20010904/DTD/svg10.dtd">
<svg version="1.0" xmlns="http://www.w3.org/2000/svg"
 width="33.000000pt" height="33.000000pt" viewBox="0 0 300.000000 206.000000"
 preserveAspectRatio="xMidYMid meet">
<metadata>
Created by potrace 1.10, written by Peter Selinger 2001-2011
</metadata>
<g transform="translate(0.000000,206.000000) scale(0.100000,-0.100000)"
fill="#ffffff" stroke="none">
<path d="M558 1813 c-75 -58 -143 -184 -168 -308 -24 -123 24 -251 141 -378
l68 -74 -33 -16 c-67 -32 -132 -168 -124 -261 7 -82 42 -139 162 -266 119
-125 154 -180 165 -265 8 -55 24 -85 46 -85 20 0 82 74 96 116 7 22 13 65 13
96 1 51 3 58 21 58 31 0 121 103 146 168 30 80 37 218 15 298 -39 136 -93 229
-269 466 -126 170 -197 313 -197 399 0 15 -10 40 -23 54 l-22 26 -37 -28z m49
-50 c2 -115 54 -219 228 -458 146 -200 179 -254 216 -357 55 -150 47 -279 -24
-396 -35 -58 -105 -132 -93 -97 42 115 13 238 -89 381 -25 35 -114 135 -198
221 -182 189 -218 247 -225 359 -6 88 19 179 73 269 28 46 101 135 110 135 1
0 2 -26 2 -57z m22 -897 c17 -34 67 -110 112 -171 104 -140 140 -216 147 -304
3 -54 0 -77 -18 -118 -12 -28 -31 -60 -43 -72 l-22 -20 0 57 c0 89 -37 152
-171 292 -62 66 -123 139 -135 162 -44 86 -21 205 57 297 l29 35 7 -49 c4 -26
21 -76 37 -109z m178 -38 c81 -105 127 -238 105 -298 -9 -24 -11 -22 -41 35
-17 33 -65 105 -105 159 -90 122 -136 210 -136 263 l1 38 66 -70 c36 -38 85
-96 110 -127z"/>
<path d="M1541 1335 c-29 -25 -71 -116 -71 -156 0 -11 7 -30 15 -43 14 -21 13
-24 -4 -40 -14 -13 -24 -14 -45 -6 -15 5 -43 10 -63 10 l-35 0 7 55 c6 54 5
57 -28 90 -41 41 -56 43 -85 12 -17 -18 -23 -43 -32 -138 -7 -64 -10 -171 -8
-238 l3 -123 33 -29 c18 -16 44 -29 57 -29 35 0 90 24 128 56 35 30 48 18 23
-21 -22 -33 -20 -58 7 -82 35 -33 48 -32 112 1 33 18 83 40 110 50 76 28 115
61 115 97 0 44 -34 86 -81 100 -21 7 -39 17 -39 23 0 6 17 20 37 31 20 11 41
28 47 37 14 24 -3 66 -37 92 -24 17 -32 19 -58 9 -50 -19 -73 2 -49 45 15 27
50 139 50 161 0 24 -37 61 -61 61 -10 0 -31 -11 -48 -25z m68 -14 c21 -13 -34
-181 -59 -181 -49 0 -59 17 -38 67 6 15 12 35 14 43 2 8 8 16 14 18 5 2 8 8 5
12 -6 10 29 50 43 50 4 0 13 -4 21 -9z m-322 -88 c24 -16 25 -20 19 -80 -4
-34 -9 -81 -12 -104 l-6 -43 32 27 c45 38 98 37 144 -4 32 -28 35 -34 29 -72
-8 -59 -25 -88 -91 -155 -80 -82 -151 -92 -169 -24 -10 37 -10 205 1 327 5 55
9 110 8 123 -2 26 10 28 45 5z m281 -156 c6 -6 12 -27 14 -45 l3 -32 30 28
c42 39 71 46 90 19 19 -26 20 -58 2 -51 -18 7 -102 -51 -115 -80 -10 -22 -8
-25 20 -35 17 -6 44 -11 60 -11 33 0 78 -39 78 -67 0 -13 -18 -28 -53 -46 -30
-15 -59 -27 -65 -27 -12 0 -81 -36 -123 -63 -25 -16 -26 -16 -49 8 l-23 24 30
17 c28 17 30 21 30 83 0 49 10 265 13 289 1 8 49 0 58 -11z"/>
<path d="M1353 974 c-19 -20 -37 -49 -40 -65 -3 -16 -9 -29 -14 -29 -5 0 -9
-18 -9 -40 0 -53 14 -51 68 8 48 52 82 110 82 142 0 34 -47 26 -87 -16z"/>
<path d="M1568 815 c2 -19 6 -35 8 -35 3 0 21 7 42 16 l37 16 -25 10 c-14 6
-33 14 -42 19 -25 13 -24 13 -20 -26z"/>
<path d="M1872 1323 c-36 -14 -42 -56 -42 -311 l0 -250 35 -31 c43 -38 55 -38
94 -5 24 20 31 34 31 62 0 21 4 43 9 51 6 8 8 -11 8 -52 -1 -57 2 -70 23 -92
31 -33 72 -33 99 1 l21 26 42 -17 c39 -15 44 -15 79 1 38 16 38 16 69 -10 17
-14 36 -26 41 -26 5 0 23 14 41 30 27 26 33 28 47 16 33 -29 58 -28 92 2 l33
30 -13 65 c-13 64 -12 101 9 332 8 95 4 120 -26 146 -63 55 -99 21 -108 -106
-4 -49 -10 -100 -12 -112 -6 -21 -6 -21 -37 -3 -49 29 -143 15 -198 -30 -39
-31 -42 -32 -52 -15 -31 56 -104 88 -147 65 -33 -18 -40 0 -40 106 0 82 -2 93
-23 112 -22 21 -48 26 -75 15z m61 -90 c2 -38 4 -114 3 -170 -1 -57 1 -103 6
-103 4 0 8 6 8 14 0 8 15 31 34 50 42 45 84 48 123 10 23 -23 25 -30 19 -87
-3 -34 -9 -100 -12 -147 -7 -114 -7 -114 -44 -95 -35 18 -35 23 -15 155 8 52
15 110 15 129 l0 35 -30 -29 c-44 -42 -81 -124 -87 -194 -3 -35 -11 -62 -19
-65 -18 -7 -64 16 -65 34 -4 38 3 516 8 523 2 4 15 7 27 7 22 0 24 -5 29 -67z
m618 30 c12 -14 12 -26 -16 -370 -3 -37 -1 -64 5 -68 6 -3 8 -10 5 -15 -3 -5
-2 -11 3 -14 5 -3 7 -19 4 -36 -5 -32 -26 -39 -63 -20 -17 10 -19 22 -19 113
0 56 7 167 14 247 8 79 12 148 9 153 -2 4 -2 14 1 22 6 16 40 9 57 -12z m-152
-227 c22 -24 23 -27 11 -112 -6 -48 -11 -111 -10 -138 2 -78 1 -86 -14 -86
-26 0 -40 31 -40 86 1 30 -2 54 -5 54 -4 0 -15 -15 -25 -32 -51 -88 -93 -100
-151 -43 -29 30 -35 43 -35 79 0 36 8 54 44 103 39 54 98 103 123 103 5 0 19
-9 31 -20 12 -12 23 -17 24 -13 0 4 2 13 3 18 2 6 3 13 4 18 2 13 17 7 40 -17z"/>
<path d="M2273 952 c-74 -65 -121 -162 -79 -162 15 0 69 40 63 47 -3 2 15 34
39 70 24 37 44 71 44 75 0 18 -27 6 -67 -30z"/>
</g>
</svg>
